<svg xmlns="http://www.w3.org/2000/svg" viewBox="-394.961 176.039 105.065 105.065">
  <defs>
    <style>
      .cls-1 {
        fill: #fff;
      }
    </style>
  </defs>
  <g id="innogy_picto_c-play" transform="translate(-394.961 176.039)">
    <path id="circle" class="cls-1" d="M52.532,5.253A47.279,47.279,0,1,1,5.253,52.533,47.279,47.279,0,0,1,52.532,5.253m0-5.253a52.533,52.533,0,1,0,52.533,52.533A52.533,52.533,0,0,0,52.532,0Z" transform="translate(0 0)"/>
    <path id="check" class="cls-1" d="M38.059,68.58a2.628,2.628,0,0,1-2.626-2.627V27.43a2.627,2.627,0,0,1,4.484-1.857L59.178,44.834a2.624,2.624,0,0,1,0,3.714L39.917,67.811a2.624,2.624,0,0,1-1.858.77Zm2.627-34.809V59.612l12.92-12.921Z" transform="translate(8.344 5.841)"/>
  </g>
</svg>
