<svg xmlns="http://www.w3.org/2000/svg" viewBox="-395.054 347.859 104.245 104.245">
  <defs>
    <style>
      .cls-1 {
        fill: #fff;
      }
    </style>
  </defs>
  <g id="innogy_picto_clock" transform="translate(-395.054 347.859)">
    <path id="circle" class="cls-1" d="M52.123,104.245a52.123,52.123,0,1,1,52.123-52.123A51.576,51.576,0,0,1,92.979,84.491a2.607,2.607,0,1,1-4.085-3.239A46.408,46.408,0,0,0,99.033,52.123,46.9,46.9,0,1,0,78.009,91.25a2.607,2.607,0,0,1,2.88,4.346A51.906,51.906,0,0,1,52.123,104.245Z"/>
    <path id="pointer" class="cls-1" d="M59.611,61.208,45.606,47.2V19.614a2.606,2.606,0,0,0-5.212,0V48.281a2.6,2.6,0,0,0,.766,1.845L55.926,64.893a2.606,2.606,0,0,0,3.685-3.685Z" transform="translate(9.123 3.841)"/>
  </g>
</svg>
