<svg xmlns="http://www.w3.org/2000/svg" viewBox="-251.528 352.185 94.802 94.815">
  <defs>
    <style>
      .cls-1 {
        fill: #fff;
      }
    </style>
  </defs>
  <path id="innogy_picto_speech-bubble" class="cls-1" d="M82.128,75.858a2.371,2.371,0,0,0,3.389-.332c6.04-7.6,8.865-17.7,9.238-26.08A47.4,47.4,0,1,0,0,47.463,45.861,45.861,0,0,0,9.864,76.328L.375,91.147a2.368,2.368,0,0,0-.047,2.48q.04.068.084.133a2.371,2.371,0,0,0,2.42.989l23.56-4.68a.769.769,0,0,1,.484.062,46.757,46.757,0,0,0,22.537,4.62c7.439-.35,18.019-3.119,25.449-8.712a2.389,2.389,0,0,0,.7-3.03l0-.006a2.369,2.369,0,0,0-3.525-.768c-7.261,5.451-16.153,7.775-24.975,7.816a41.009,41.009,0,0,1-18.937-4.608,2.361,2.361,0,0,0-1.533-.222L7.367,89.016l7.72-12.082a1.582,1.582,0,0,0-.143-1.882A42.653,42.653,0,1,1,89.9,51.148c-.577,6.584-3.03,15.111-8.088,21.451a2.351,2.351,0,0,0,.319,3.258h0Z" transform="translate(-251.526 352.198)"/>
</svg>
