<svg xmlns="http://www.w3.org/2000/svg" viewBox="-262.874 514 66.175 101.809">
  <defs>
    <style>
      .cls-1 {
        fill: #fff;
      }
    </style>
  </defs>
  <path id="innogy_picto_ear" class="cls-1" d="M84.4,33.089a33.087,33.087,0,1,0-66.175,0v6.787a2.546,2.546,0,1,0,5.092,0V33.089A28,28,0,1,1,75.838,46.6L68.4,61.411l.031-.021L55.173,87.864a16.958,16.958,0,0,1-31.856-8.112V55.145a2.546,2.546,0,0,0-5.092,0v24.6a22.062,22.062,0,0,0,42.389,8.569L81.15,47.39a32.929,32.929,0,0,0,3.25-14.3m-46.66,1.747h0c0-.017.01-.619.028-.9A12.725,12.725,0,1,1,62.1,39.953L50.238,63.533a5.939,5.939,0,0,1-10.879-3.3,5.07,5.07,0,0,1,.552-2.3h0l1.88-3.75a15.2,15.2,0,0,0,1.552-6.707v-.017a11,11,0,0,0-3.233-7.8v0l-.629-.629a5.925,5.925,0,0,1-1.737-4.2m-5.092,0a11.006,11.006,0,0,0,3.222,7.79l.007.007.007.007.622.622h0a5.912,5.912,0,0,1,1.744,4.2v.017a10.135,10.135,0,0,1-.993,4.362l-2.048,4.141a10.152,10.152,0,0,0-.94,4.25A11.023,11.023,0,0,0,54.8,65.819L66.64,42.232a17.812,17.812,0,1,0-33.97-8.293c-.014.28-.021.881-.021.9Z" transform="translate(-281.1 513.998)"/>
</svg>
