<svg xmlns="http://www.w3.org/2000/svg" viewBox="-395.362 175.935 105.467 105.467">
  <defs>
    <style>
      .cls-1 {
        fill: #fff;
      }
    </style>
  </defs>
  <path id="innogy_picto_c-pause" class="cls-1" d="M52.733,5.273a47.46,47.46,0,1,1-47.46,47.46,47.46,47.46,0,0,1,47.46-47.46m0-5.273a52.733,52.733,0,1,0,52.733,52.733A52.733,52.733,0,0,0,52.733,0ZM63.281,67.675V37.792a2.637,2.637,0,1,0-5.273,0V67.675a2.637,2.637,0,1,0,5.273,0Zm-15.821,0V37.792a2.637,2.637,0,1,0-5.273,0V67.675a2.637,2.637,0,0,0,5.273,0Z" transform="translate(-395.362 175.935)"/>
</svg>
