<svg xmlns="http://www.w3.org/2000/svg" viewBox="-395.942 175.856 106.046 106.046">
  <defs>
    <style>
      .cls-1 {
        fill: #fff;
      }
    </style>
  </defs>
  <path id="innogy_picto_c-speaker" class="cls-1" d="M53.023,5.3A47.721,47.721,0,1,1,5.3,53.023,47.721,47.721,0,0,1,53.023,5.3m0-5.3a53.023,53.023,0,1,0,53.023,53.023A53.023,53.023,0,0,0,53.023,0Zm2.019,74.182a2.77,2.77,0,0,0-.264-3.713L43.668,59.351a3.534,3.534,0,0,0-2.5-1.036H32.7L32.687,47.7h8.482a3.533,3.533,0,0,0,2.5-1.036L54.9,35.43a2.654,2.654,0,0,0-.2-3.935,2.753,2.753,0,0,0-3.654.289L40.436,42.4H32.687A5.285,5.285,0,0,0,27.4,47.662V58.25a5.337,5.337,0,0,0,5.291,5.371h7.75L51.148,74.338a2.649,2.649,0,0,0,3.894-.157Zm8.7-11.778a13.337,13.337,0,0,0,0-18.761A2.651,2.651,0,1,0,59.98,47.38a8.021,8.021,0,0,1,0,11.285A2.651,2.651,0,1,0,63.741,62.4Zm7.511,7.513a24.019,24.019,0,0,0,0-33.785,2.651,2.651,0,1,0-3.761,3.739,18.7,18.7,0,0,1,0,26.308,2.651,2.651,0,1,0,3.761,3.739Z" transform="translate(-395.942 175.856)"/>
</svg>
