<svg xmlns="http://www.w3.org/2000/svg" viewBox="-361.109 512.041 71.299 104.064">
  <defs>
    <style>
      .cls-1 {
        fill: #fff;
      }
    </style>
  </defs>
  <path id="innogy_picto_thumbs-up" class="cls-1" d="M87.6,62.015C87.6,56.02,82.7,50.5,77.219,50.5l-17.65,0a29.376,29.376,0,0,0,3.671-6.489A44.976,44.976,0,0,0,66.02,29.085a43.2,43.2,0,0,0-4.159-18.547l-.025.013A11.563,11.563,0,0,0,49.556,4.421a12.373,12.373,0,0,0-9.422,9.618,13.781,13.781,0,0,0,.361,5.739,28.784,28.784,0,0,1,.34,4.764c0,6.884-1.454,11.54-7.135,17.949A37.191,37.191,0,0,1,18.308,52.8a2.845,2.845,0,0,0-2,2.772l-.01,49.834a2.891,2.891,0,0,0,2.9,2.894h.014a2.891,2.891,0,0,0,2.88-2.894V57.592A46.855,46.855,0,0,0,41.315,42.811c3.087-4.4,5.333-12.285,5.333-19.144a33.669,33.669,0,0,0-.774-7.534c-.458-2.971,2.534-6.092,5.676-6.092A5.669,5.669,0,0,1,56.7,13.2C57.434,14.725,58.255,17,58.255,17a37.52,37.52,0,0,1,1.987,12.081c0,5.856-1.469,13.071-4.356,17.388a58.135,58.135,0,0,1-3.941,5,2.9,2.9,0,0,0,.661,4.195c.031.021.066.033.1.052a2.864,2.864,0,0,0,1.634.51H76.1a5.786,5.786,0,0,1,5.689,6.376,5.955,5.955,0,0,1-6,5.192l-.622,0H57.96a2.894,2.894,0,0,0,0,5.787H74.048a5.787,5.787,0,0,1,5.689,6.376,5.955,5.955,0,0,1-6,5.193H57.96a2.894,2.894,0,0,0,0,5.787H70.1l.019.014a5.786,5.786,0,0,1,5.689,6.377,5.956,5.956,0,0,1-6,5.191H36.465a2.894,2.894,0,0,0,0,5.787H71.234v-.058A11.577,11.577,0,0,0,79.22,89.69a11.585,11.585,0,0,0,3.314-18.112A11.558,11.558,0,0,0,87.6,62.015Z" transform="translate(-377.408 507.792)"/>
</svg>
